<?xml version="1.0" encoding="utf-8"?>
<!-- Generator: Adobe Illustrator 23.0.1, SVG Export Plug-In . SVG Version: 6.00 Build 0)  -->
<svg version="1.1" id="Layer_1" xmlns="http://www.w3.org/2000/svg" xmlns:xlink="http://www.w3.org/1999/xlink" x="0px" y="0px"
	 viewBox="0 0 64 64" style="enable-background:new 0 0 64 64;" xml:space="preserve">
<style type="text/css">
	.bg-icon-bsv-st0{fill:#E9B400;}
	.bg-icon-bsv-st1{fill:#FFFFFF;}
</style>
<title>BSV</title>
<g>
	<path class="bg-icon-bsv-st0" d="M60.1,39c-3.9,15.5-19.6,24.9-35.1,21.1C9.6,56.2,0.1,40.5,4,25C7.9,9.5,23.6,0.1,39.1,3.9
		C54.6,7.8,64,23.5,60.1,39z"/>
	<path class="bg-icon-bsv-st1" d="M43.7,24.9c-0.3-3.9-3.6-5.2-7.8-5.7l0.1-5.4l-3.3-0.1L32.6,19c-0.9,0-1.7,0-2.6,0l0.1-5.3l-3.3-0.1L26.7,19
		c-0.7,0-1.4,0-2.1,0l0,0l-4.5-0.1L20,22.4c0,0,2.4,0,2.4,0c1.3,0,1.7,0.8,1.9,1.5L24.1,30c0.1,0,0.2,0,0.3,0c-0.1,0-0.2,0-0.3,0
		L24,38.6c-0.1,0.4-0.3,1.1-1.3,1.1c0,0-2.4,0-2.4,0l-0.7,3.9l4.3,0.1c0.8,0,1.6,0,2.3,0.1l-0.1,5.4l3.3,0.1l0.1-5.4
		c0.9,0,1.8,0.1,2.6,0.1L32,49.2l3.3,0.1l0.1-5.4c5.5-0.2,9.4-1.5,10-6.7c0.5-4.2-1.5-6-4.6-6.9C42.7,29.4,43.9,27.7,43.7,24.9z
		 M38.9,36.4c-0.1,4.1-7,3.5-9.2,3.4l0.1-7.2C32,32.7,39,32.2,38.9,36.4z M37.6,26.2c-0.1,3.7-5.9,3.1-7.7,3.1l0.1-6.5
		C31.8,22.9,37.6,22.4,37.6,26.2z"/>
</g>
</svg>
