<?xml version="1.0" encoding="utf-8"?>
<svg version="1.1" id="Layer_1" xmlns="http://www.w3.org/2000/svg" xmlns:xlink="http://www.w3.org/1999/xlink" x="0px" y="0px"
	 viewBox="0 0 64 64" style="enable-background:new 0 0 64 64;" xml:space="preserve">
<style type="text/css">
	.eos-st0{fill:#FFFFFF;}
  .eos-circle{fill:#000000}
</style>
<title>EOS</title>
<g>
	<circle class="eos-circle" cx="32" cy="31.9" r="28.9"/>
	<path class="eos-st0" d="M46.6,44.6L46.6,44.6L46.6,44.6c0,0.1,0,0.1-0.1,0.2c-0.1,0.1-0.2,0.3-0.3,0.4l0,0l0,0l0,0l0,0l0,0l0,0l0,0
		l0,0l0,0l0,0l0,0l-13.7,8.6c-0.2,0.1-0.3,0.1-0.5,0.1l0,0c-0.2,0-0.3,0-0.5-0.1l-13.7-8.6l0,0l0,0l0,0l0,0l0,0l0,0l0,0l0,0l0,0l0,0
		l0,0c-0.1-0.1-0.2-0.2-0.3-0.4c0-0.1-0.1-0.1-0.1-0.2l0,0l0,0c0-0.1,0-0.2,0-0.4c0,0,0,0,0-0.1l4.5-20.4c0-0.1,0-0.1,0.1-0.2l0,0
		l0,0c0,0,0,0,0-0.1c0,0,0-0.1,0.1-0.1l9.2-12.6c0.2-0.2,0.5-0.4,0.8-0.4s0.6,0.1,0.8,0.4L42,23.4c0.1,0.1,0.1,0.2,0.2,0.4l4.5,20.4
		c0,0,0,0,0,0.1C46.7,44.4,46.6,44.5,46.6,44.6z"/>
	<polygon points="22.9,27.6 20.5,38.6 24.3,31.9 	"/>
	<polygon points="25.1,34.3 19.9,43.5 28,43.5 	"/>
	<polygon points="40.2,24.2 32.9,14.2 32.9,20 38.5,29.7 	"/>
	<polygon points="29.9,43.5 34.1,43.5 37.7,32.1 32,22.1 26.3,32.1 	"/>
	<polygon points="43.5,38.6 41.1,27.6 39.7,31.9 	"/>
	<polygon points="31.1,20 31.1,14.2 23.8,24.2 25.6,29.7 	"/>
	<polygon points="36,43.5 44.1,43.5 38.9,34.3 	"/>
	<polygon points="21.5,45.3 30.4,50.9 28.6,45.3 	"/>
	<polygon points="33.7,50.9 42.5,45.3 35.4,45.3 	"/>
	<polygon points="32,50 33.5,45.3 30.5,45.3 	"/>
</g>
</svg>
